<?xml version="1.0" encoding="UTF-8"?>
<svg id="_레이어_2" data-name="레이어 2" xmlns="http://www.w3.org/2000/svg" viewBox="0 0 530.28 530.28">
  <defs>
    <style>
      .cls-1, .cls-2, .cls-3, .cls-4 {
        stroke-width: 0px;
      }
      .cls-2 {
        fill: none;
      }
      .cls-3 {
        fill: #f75b00;
      }
      .cls-4 {
        fill: #f7a000;
      }
      .cls-1 {
        fill: #f75b00;
      }
    </style>
  </defs>
  <g id="_레이어_1-2" data-name="레이어 1">
    <g>
      <g>
        <path class="cls-3" d="m265.14,20.64s-43.49-2.14-78.42,32.08c0,0,35.83,65.22,39.21,81.27,2.85,13.54,3.3,28.22-10.67,31.16-12.86,2.7-17.21-3.88-28.54-24.74-15.07-27.75-34.22-62.73-34.22-62.73,0,0-34.22,13.54-30.65,37.07,3.56,23.52,28.51,48.48,49.19,69.15s43.62,39.77,45.62,53.47c2.14,14.61-16.4,33.86-34.22,18.53-20.35-17.5-94.1-97.66-94.1-97.66,0,0-21.41,31.54-12.12,56.32,6.42,17.11,22.1,32.79,48.48,47.58,38.72,21.71,58.81,34.76,67.01,37.96,8.63,3.38,25.31,11.76,21.74,26.38-4.11,16.87-13.73,22.81-44.47,8.55-30.74-14.26-96.15-59.17-96.15-59.17,0,0,4.82,91.96,44.03,124.75,39.21,32.79,70.57,42.77,99.09,29.94,28.51-12.83,49.19-30.65,49.19-30.65V20.64Z"/>
        <path class="cls-1" d="m265.14,20.64s43.49-2.14,78.42,32.08c0,0-35.83,65.22-39.21,81.27-2.85,13.54-3.3,28.22,10.67,31.16,12.86,2.7,17.21-3.88,28.54-24.74,15.07-27.75,34.22-62.73,34.22-62.73,0,0,34.22,13.54,30.65,37.07-3.56,23.52-28.51,48.48-49.19,69.15s-43.62,39.77-45.62,53.47c-2.14,14.61,16.4,33.86,34.22,18.53,20.35-17.5,94.1-97.66,94.1-97.66,0,0,21.41,31.54,12.12,56.32-6.42,17.11-22.1,32.79-48.48,47.58-38.72,21.71-58.81,34.76-67.01,37.96-8.63,3.38-25.31,11.76-21.74,26.38,4.11,16.87,13.73,22.81,44.47,8.55,30.74-14.26,96.15-59.17,96.15-59.17,0,0-4.82,91.96-44.03,124.75-39.21,32.79-70.57,42.77-99.09,29.94-28.51-12.83-49.19-30.65-49.19-30.65V20.64Z"/>
        <rect class="cls-4" x="257.66" y="20.61" width="14.97" height="489.06"/>
      </g>
      <rect class="cls-2" width="530.28" height="530.28"/>
    </g>
  </g>
</svg>