<?xml version="1.0" encoding="utf-8"?>
<!-- Svg Vector Icons : http://www.onlinewebfonts.com/icon -->
<!DOCTYPE svg PUBLIC "-//W3C//DTD SVG 1.1//EN" "http://www.w3.org/Graphics/SVG/1.1/DTD/svg11.dtd">
<svg version="1.1" xmlns="http://www.w3.org/2000/svg" xmlns:xlink="http://www.w3.org/1999/xlink" x="0px" y="0px" viewBox="0 0 256 256" enable-background="new 0 0 256 256" xml:space="preserve">
<metadata> Svg Vector Icons : http://www.onlinewebfonts.com/icon </metadata>
<g><g><path fill="#000000" d="M241.1,77.1L241.1,77.1L111.8,201.9l0,0c-3,2.9-7.2,4.8-11.9,4.8c-4.7,0-8.9-1.8-11.9-4.8l0,0l-73-70.5l0,0c-3.1-2.9-4.9-7-4.9-11.5c0-9,7.5-16.3,16.9-16.3c4.6,0,8.9,1.8,11.9,4.8l0,0l61.1,59L217.2,54.1l0,0c3-2.9,7.2-4.8,11.9-4.8c9.3,0,16.9,7.3,16.9,16.3C246,70.1,244.1,74.2,241.1,77.1z"/></g></g>
</svg>